<svg width="1200" height="800" viewBox="0 0 1200 800" fill="none" xmlns="http://www.w3.org/2000/svg">
	<rect width="1200" height="800" fill="#080B16"/>
	<circle cx="966" cy="146" r="180" fill="#24365F" opacity="0.8"/>
	<circle cx="973" cy="146" r="126" fill="#10182B"/>
	<path d="M0 633C150 563 278 664 429 594C596 516 705 614 849 542C996 468 1087 522 1200 466V800H0V633Z" fill="#19243F"/>
	<path d="M0 705C137 661 292 728 431 682C601 626 748 693 886 643C1014 596 1104 644 1200 599V800H0V705Z" fill="#111A31"/>
	<g opacity="0.95">
		<path d="M588 221L643 466L588 430L533 466L588 221Z" fill="#D7E7FF"/>
		<path d="M588 221L643 466L588 430V221Z" fill="#83B2FF"/>
		<path d="M525 493L588 430L651 493L588 573L525 493Z" fill="#4F7FE5"/>
		<path d="M548 511L588 462L628 511L588 565L548 511Z" fill="#142046"/>
		<path d="M482 528L525 493L571 541L498 607L482 528Z" fill="#7AA3F2"/>
		<path d="M694 528L651 493L605 541L678 607L694 528Z" fill="#3C63C8"/>
		<path d="M559 581H617L588 681L559 581Z" fill="#FFB454"/>
		<path d="M573 581H603L588 641L573 581Z" fill="#FFE2A3"/>
	</g>
	<g fill="#F2F6FF" opacity="0.85">
		<circle cx="162" cy="128" r="4"/>
		<circle cx="252" cy="272" r="3"/>
		<circle cx="390" cy="126" r="5"/>
		<circle cx="750" cy="189" r="3"/>
		<circle cx="838" cy="339" r="4"/>
		<circle cx="1017" cy="379" r="3"/>
		<circle cx="1088" cy="252" r="5"/>
		<circle cx="108" cy="427" r="3"/>
		<circle cx="322" cy="506" r="4"/>
		<circle cx="732" cy="592" r="3"/>
	</g>
	<text x="80" y="697" fill="#F3F4F7" font-family="system-ui, -apple-system, BlinkMacSystemFont, 'Segoe UI', sans-serif" font-size="86" font-weight="700">GalaxySurvival</text>
	<text x="86" y="745" fill="#A3ACC8" font-family="system-ui, -apple-system, BlinkMacSystemFont, 'Segoe UI', sans-serif" font-size="30" font-weight="500">58Hackathon project</text>
</svg>
